<?xml version="1.0" encoding="UTF-8"?>
<svg width="36px" height="32px" viewBox="0 0 36 32" version="1.1" xmlns="http://www.w3.org/2000/svg" xmlns:xlink="http://www.w3.org/1999/xlink">
    <title>Fill 1</title>
    <defs>
        <path d="M444.375723,396.635481 C444.375723,398.395853 445.763006,402.112196 446.780347,404.165964 C445.393064,405.241747 438.456647,408.2735 435.774566,407.980105 C434.202312,406.317531 433,402.992382 433,400.743017 C433,392.919138 438.82659,383.041491 446.040462,376 L449,378.444962 C445.763006,383.921677 444.375723,389.202796 444.375723,396.635481 M424.468208,396.635481 C424.468208,398.395853 425.763006,402.112196 426.687861,404.165964 C425.485549,405.241747 418.456647,408.2735 415.774566,407.980105 C414.294798,406.317531 413,402.992382 413,400.743017 C413,392.919138 418.734104,383.041491 426.132948,376 L429,378.444962 C425.763006,383.921677 424.468208,389.202796 424.468208,396.635481" id="path-1"></path>
    </defs>
    <g id="Quote" stroke="none" stroke-width="1" fill="none" fill-rule="evenodd">
        <g id="Fill-1" transform="translate(-413.000000, -376.000000)">
            <use fill="#FFFFFF" xlink:href="#path-1"></use>
            <use fill-opacity="0.12" fill="#18805A" xlink:href="#path-1"></use>
        </g>
    </g>
</svg>